<?xml version="1.0" encoding="utf-8"?>
<!-- Generator: Adobe Illustrator 27.2.0, SVG Export Plug-In . SVG Version: 6.00 Build 0)  -->
<svg version="1.1" id="Layer_1" xmlns="http://www.w3.org/2000/svg" xmlns:xlink="http://www.w3.org/1999/xlink" x="0px" y="0px"
	 viewBox="0 0 2201.6 2000" style="enable-background:new 0 0 2201.6 2000;" xml:space="preserve">
<style type="text/css">
	.st0{fill:#C9CFFF;}
	.st1{fill:#FFFFFF;}
	.st2{clip-path:url(#SVGID_00000145744117806953023940000006596229840720691596_);}
	.st3{clip-path:url(#SVGID_00000052095725597601066750000018376072527456698041_);}
	.st4{clip-path:url(#SVGID_00000156574849438500475320000014485611259533032121_);}
	.st5{clip-path:url(#SVGID_00000086677601562274212590000005265657897150594979_);}
	.st6{clip-path:url(#SVGID_00000170274572872195654440000007402278618906593981_);}
	.st7{fill:#7888FF;}
</style>
<g>
	<g>
		<path class="st0" d="M1324.1,1406.1c-54.8,0-107.9-10.7-157.9-31.9c-48.3-20.4-91.7-49.7-129-87c-37.3-37.3-66.5-80.7-87-129
			c-21.2-50-31.9-103.2-31.9-157.9s10.7-107.9,31.9-158c20.4-48.3,49.7-91.7,87-129s80.7-66.5,129-87c50-21.2,103.2-31.9,157.9-31.9
			s107.9,10.7,157.9,31.9c48.3,20.4,91.7,49.7,129,87s66.5,80.7,87,129c21.2,50,31.9,103.2,31.9,158s-10.7,107.9-31.9,157.9
			c-20.4,48.3-49.7,91.7-87,129c-37.3,37.3-80.7,66.5-129,87C1432,1395.4,1378.9,1406.1,1324.1,1406.1z M1324.1,602.4
			c-53.7,0-105.8,10.5-154.9,31.3c-47.4,20-89.9,48.7-126.5,85.3s-65.2,79.1-85.3,126.5c-20.8,49.1-31.3,101.2-31.3,154.9
			s10.5,105.8,31.3,154.9c20,47.4,48.7,89.9,85.3,126.5s79.1,65.2,126.5,85.3c49.1,20.8,101.2,31.3,154.9,31.3
			s105.8-10.5,154.9-31.3c47.4-20,89.9-48.7,126.5-85.3s65.2-79.1,85.3-126.5c20.8-49.1,31.3-101.2,31.3-154.9
			s-10.5-105.8-31.3-154.9c-20-47.4-48.7-89.9-85.3-126.5s-79.1-65.2-126.5-85.3C1429.9,612.9,1377.8,602.4,1324.1,602.4z"/>
		<path class="st0" d="M1324.1,1597.9c-80.7,0-158.9-15.8-232.6-47c-71.2-30.1-135-73.2-189.9-128c-54.9-54.9-98-118.8-128-189.9
			c-31.2-73.7-47-151.9-47-232.6c0-80.7,15.8-158.9,47-232.6c30.1-71.2,73.2-135,128-189.9c54.9-54.9,118.8-98,189.9-128
			c73.7-31.2,151.9-47,232.6-47s158.9,15.8,232.6,47c71.2,30.1,135,73.2,189.9,128c54.9,54.9,98,118.8,128,189.9
			c31.2,73.7,47,151.9,47,232.6c0,80.7-15.8,158.9-47,232.6c-30.1,71.2-73.2,135-128,189.9c-54.9,54.9-118.8,98-189.9,128
			C1483,1582.1,1404.8,1597.9,1324.1,1597.9z M1324.1,410.7c-79.6,0-156.8,15.6-229.5,46.3c-70.2,29.7-133.3,72.2-187.4,126.4
			c-54.2,54.2-96.7,117.2-126.4,187.4c-30.7,72.7-46.3,149.9-46.3,229.5s15.6,156.8,46.3,229.5c29.7,70.2,72.2,133.3,126.4,187.4
			c54.2,54.2,117.2,96.7,187.4,126.4c72.7,30.7,149.9,46.3,229.5,46.3s156.8-15.6,229.5-46.3c70.2-29.7,133.3-72.2,187.4-126.4
			c54.2-54.2,96.7-117.2,126.4-187.4c30.7-72.7,46.3-149.9,46.3-229.5s-15.6-156.8-46.3-229.5c-29.7-70.2-72.2-133.3-126.4-187.4
			c-54.2-54.2-117.2-96.7-187.4-126.4C1480.9,426.3,1403.7,410.7,1324.1,410.7z"/>
		<path class="st0" d="M1324.1,1799.3c-107.8,0-212.5-21.1-311-62.8c-95.1-40.2-180.6-97.8-253.9-171.2
			c-73.4-73.4-131-158.8-171.2-253.9c-41.7-98.5-62.8-203.1-62.8-311s21.1-212.5,62.8-311c40.2-95.1,97.8-180.6,171.2-253.9
			c73.4-73.4,158.8-131,253.9-171.2c98.5-41.7,203.1-62.8,311-62.8s212.5,21.1,311,62.8c95.1,40.2,180.6,97.8,253.9,171.2
			c73.4,73.4,131,158.8,171.2,253.9c41.7,98.5,62.8,203.1,62.8,311s-21.1,212.5-62.8,311c-40.2,95.1-97.8,180.6-171.2,253.9
			c-73.4,73.4-158.8,131-253.9,171.2C1536.6,1778.1,1432,1799.3,1324.1,1799.3z M1324.1,209.3c-106.8,0-210.4,20.9-307.9,62.2
			C922,311.3,837.4,368.3,764.7,441C692.1,513.6,635,598.2,595.2,692.4C553.9,790,533,893.6,533,1000.4s20.9,210.4,62.2,307.9
			c39.8,94.2,96.9,178.8,169.5,251.5c72.7,72.7,157.3,129.7,251.5,169.5c97.5,41.2,201.1,62.2,307.9,62.2s210.4-20.9,307.9-62.2
			c94.2-39.8,178.8-96.9,251.5-169.5c72.7-72.7,129.7-157.3,169.5-251.5c41.2-97.5,62.2-201.1,62.2-307.9S2094.3,790,2053,692.4
			c-39.8-94.2-96.9-178.8-169.5-251.5c-72.7-72.7-157.3-129.7-251.5-169.5C1534.5,230.2,1430.9,209.3,1324.1,209.3z"/>
		<g>
			<path class="st1" d="M1581.8,639.5c0-34.4-9.7-44.1-44.1-44.1c34.4,0,44.1-9.7,44.1-44.1c0,34.4,9.7,44.1,44.1,44.1
				C1591.5,595.4,1581.8,605.1,1581.8,639.5z"/>
			<path d="M1581.8,643.4c-2.2,0-3.9-1.8-3.9-3.9c0-32.3-7.9-40.2-40.2-40.2c-2.2,0-3.9-1.8-3.9-3.9s1.8-3.9,3.9-3.9
				c32.3,0,40.2-7.9,40.2-40.2c0-2.2,1.8-3.9,3.9-3.9s3.9,1.8,3.9,3.9c0,32.3,7.9,40.2,40.2,40.2c2.2,0,3.9,1.8,3.9,3.9
				s-1.8,3.9-3.9,3.9c-32.3,0-40.2,7.9-40.2,40.2C1585.7,641.7,1584,643.4,1581.8,643.4z M1565.5,595.4c4,1.6,7.2,3.7,9.9,6.4
				c2.7,2.7,4.8,5.9,6.4,9.9c1.6-4,3.7-7.2,6.4-9.9c2.7-2.7,5.9-4.8,9.9-6.4c-4-1.6-7.2-3.7-9.9-6.4c-2.7-2.7-4.8-5.9-6.4-9.9
				c-1.6,4-3.7,7.2-6.4,9.9C1572.8,591.7,1569.5,593.8,1565.5,595.4z"/>
		</g>
		<g>
			<path class="st1" d="M1268.1,347c0-34.4-9.7-44.1-44.1-44.1c34.4,0,44.1-9.7,44.1-44.1c0,34.4,9.7,44.1,44.1,44.1
				C1277.7,302.9,1268.1,312.6,1268.1,347z"/>
			<path d="M1268.1,350.9c-2.2,0-3.9-1.8-3.9-3.9c0-32.3-7.9-40.2-40.2-40.2c-2.2,0-3.9-1.8-3.9-3.9s1.8-3.9,3.9-3.9
				c32.3,0,40.2-7.9,40.2-40.2c0-2.2,1.8-3.9,3.9-3.9s3.9,1.8,3.9,3.9c0,32.3,7.9,40.2,40.2,40.2c2.2,0,3.9,1.8,3.9,3.9
				s-1.8,3.9-3.9,3.9c-32.3,0-40.2,7.9-40.2,40.2C1272,349.1,1270.2,350.9,1268.1,350.9z M1251.8,302.9c4,1.6,7.2,3.7,9.9,6.4
				c2.7,2.7,4.8,5.9,6.4,9.9c1.6-4,3.7-7.2,6.4-9.9c2.7-2.7,5.9-4.8,9.9-6.4c-4-1.6-7.2-3.7-9.9-6.4c-2.7-2.7-4.8-5.9-6.4-9.9
				c-1.6,4-3.7,7.2-6.4,9.9C1259,299.2,1255.8,301.3,1251.8,302.9z"/>
		</g>
		<g>
			<path class="st1" d="M2005,302.9c0-34.4-9.7-44.1-44.1-44.1c34.4,0,44.1-9.7,44.1-44.1c0,34.4,9.7,44.1,44.1,44.1
				C2014.7,258.8,2005,268.5,2005,302.9z"/>
			<path d="M2005,306.8c-2.2,0-3.9-1.8-3.9-3.9c0-32.3-7.9-40.2-40.2-40.2c-2.2,0-3.9-1.8-3.9-3.9s1.8-3.9,3.9-3.9
				c32.3,0,40.2-7.9,40.2-40.2c0-2.2,1.8-3.9,3.9-3.9s3.9,1.8,3.9,3.9c0,32.3,7.9,40.2,40.2,40.2c2.2,0,3.9,1.8,3.9,3.9
				s-1.8,3.9-3.9,3.9c-32.3,0-40.2,7.9-40.2,40.2C2008.9,305,2007.1,306.8,2005,306.8z M1988.7,258.8c4,1.6,7.2,3.7,9.9,6.4
				c2.7,2.7,4.8,5.9,6.4,9.9c1.6-4,3.7-7.2,6.4-9.9c2.7-2.7,5.9-4.8,9.9-6.4c-4-1.6-7.2-3.7-9.9-6.4c-2.7-2.7-4.8-5.9-6.4-9.9
				c-1.6,4-3.7,7.2-6.4,9.9C1995.9,255.1,1992.7,257.2,1988.7,258.8z"/>
		</g>
		<g>
			<path class="st1" d="M370.2,1361.5c0-34.4-9.7-44.1-44.1-44.1c34.4,0,44.1-9.7,44.1-44.1c0,34.4,9.7,44.1,44.1,44.1
				C379.9,1317.4,370.2,1327.1,370.2,1361.5z"/>
			<path d="M370.2,1365.4c-2.2,0-3.9-1.8-3.9-3.9c0-32.3-7.9-40.2-40.2-40.2c-2.2,0-3.9-1.8-3.9-3.9s1.8-3.9,3.9-3.9
				c32.3,0,40.2-7.9,40.2-40.2c0-2.2,1.8-3.9,3.9-3.9s3.9,1.8,3.9,3.9c0,32.3,7.9,40.2,40.2,40.2c2.2,0,3.9,1.8,3.9,3.9
				s-1.8,3.9-3.9,3.9c-32.3,0-40.2,7.9-40.2,40.2C374.1,1363.6,372.3,1365.4,370.2,1365.4z M353.9,1317.4c4,1.6,7.2,3.7,9.9,6.4
				c2.7,2.7,4.8,5.9,6.4,9.9c1.6-4,3.7-7.2,6.4-9.9c2.7-2.7,5.9-4.8,9.9-6.4c-4-1.6-7.2-3.7-9.9-6.4c-2.7-2.7-4.8-5.9-6.4-9.9
				c-1.6,4-3.7,7.2-6.4,9.9C361.1,1313.7,357.9,1315.8,353.9,1317.4z"/>
		</g>
		<g>
			<path class="st1" d="M1517.9,1260.2c0-34.4-9.7-44.1-44.1-44.1c34.4,0,44.1-9.7,44.1-44.1c0,34.4,9.7,44.1,44.1,44.1
				C1527.5,1216.1,1517.9,1225.8,1517.9,1260.2z"/>
			<path d="M1517.9,1264.1c-2.2,0-3.9-1.8-3.9-3.9c0-32.3-7.9-40.2-40.2-40.2c-2.2,0-3.9-1.8-3.9-3.9s1.8-3.9,3.9-3.9
				c32.3,0,40.2-7.9,40.2-40.2c0-2.2,1.8-3.9,3.9-3.9s3.9,1.8,3.9,3.9c0,32.3,7.9,40.2,40.2,40.2c2.2,0,3.9,1.8,3.9,3.9
				s-1.8,3.9-3.9,3.9c-32.3,0-40.2,7.9-40.2,40.2C1521.8,1262.3,1520,1264.1,1517.9,1264.1z M1501.6,1216.1c4,1.6,7.2,3.7,9.9,6.4
				c2.7,2.7,4.8,5.9,6.4,9.9c1.6-4,3.7-7.2,6.4-9.9c2.7-2.7,5.9-4.8,9.9-6.4c-4-1.6-7.2-3.7-9.9-6.4c-2.7-2.7-4.8-5.9-6.4-9.9
				c-1.6,4-3.7,7.2-6.4,9.9C1508.8,1212.4,1505.6,1214.5,1501.6,1216.1z"/>
		</g>
		<g>
			<path class="st1" d="M1964,831.3c0-34.4-9.7-44.1-44.1-44.1c34.4,0,44.1-9.7,44.1-44.1c0,34.4,9.7,44.1,44.1,44.1
				C1973.7,787.2,1964,796.9,1964,831.3z"/>
			<path d="M1964,835.2c-2.2,0-3.9-1.8-3.9-3.9c0-32.3-7.9-40.2-40.2-40.2c-2.2,0-3.9-1.8-3.9-3.9s1.8-3.9,3.9-3.9
				c32.3,0,40.2-7.9,40.2-40.2c0-2.2,1.8-3.9,3.9-3.9s3.9,1.8,3.9,3.9c0,32.3,7.9,40.2,40.2,40.2c2.2,0,3.9,1.8,3.9,3.9
				s-1.8,3.9-3.9,3.9c-32.3,0-40.2,7.9-40.2,40.2C1967.9,833.5,1966.2,835.2,1964,835.2z M1947.7,787.2c4,1.6,7.2,3.7,9.9,6.4
				c2.7,2.7,4.8,5.9,6.4,9.9c1.6-4,3.7-7.2,6.4-9.9c2.7-2.7,5.9-4.8,9.9-6.4c-4-1.6-7.2-3.7-9.9-6.4c-2.7-2.7-4.8-5.9-6.4-9.9
				c-1.6,4-3.7,7.2-6.4,9.9C1955,783.5,1951.7,785.7,1947.7,787.2z"/>
		</g>
		<g>
			<path class="st1" d="M609.7,369c0-17.2-4.8-22-22-22c17.2,0,22-4.8,22-22c0,17.2,4.8,22,22,22C614.5,347,609.7,351.8,609.7,369z"
				/>
			<path d="M609.7,372.9c-2.2,0-3.9-1.8-3.9-3.9c0-15.1-3.1-18.1-18.1-18.1c-2.2,0-3.9-1.8-3.9-3.9s1.8-3.9,3.9-3.9
				c15.1,0,18.1-3.1,18.1-18.1c0-2.2,1.8-3.9,3.9-3.9s3.9,1.8,3.9,3.9c0,15.1,3.1,18.1,18.1,18.1c2.2,0,3.9,1.8,3.9,3.9
				s-1.8,3.9-3.9,3.9c-15.1,0-18.1,3.1-18.1,18.1C613.6,371.2,611.8,372.9,609.7,372.9z M605.7,347c1.6,1.1,2.9,2.4,4,4
				c1.1-1.6,2.4-2.9,4-4c-1.6-1.1-2.9-2.4-4-4C608.6,344.6,607.3,345.9,605.7,347z"/>
		</g>
		<g>
			<path class="st1" d="M1097,856.7c0-17.2-4.8-22-22-22c17.2,0,22-4.8,22-22c0,17.2,4.8,22,22,22
				C1101.9,834.7,1097,839.5,1097,856.7z"/>
			<path d="M1097,860.6c-2.2,0-3.9-1.8-3.9-3.9c0-15.1-3.1-18.1-18.1-18.1c-2.2,0-3.9-1.8-3.9-3.9s1.8-3.9,3.9-3.9
				c15.1,0,18.1-3.1,18.1-18.1c0-2.2,1.8-3.9,3.9-3.9s3.9,1.8,3.9,3.9c0,15.1,3.1,18.1,18.1,18.1c2.2,0,3.9,1.8,3.9,3.9
				s-1.8,3.9-3.9,3.9c-15.1,0-18.1,3.1-18.1,18.1C1101,858.9,1099.2,860.6,1097,860.6z M1093.1,834.7c1.6,1.1,2.9,2.4,4,4
				c1.1-1.6,2.4-2.9,4-4c-1.6-1.1-2.9-2.4-4-4C1096,832.3,1094.7,833.6,1093.1,834.7z"/>
		</g>
		<g>
			<path class="st1" d="M879.6,506.6c0-17.2-4.8-22-22-22c17.2,0,22-4.8,22-22c0,17.2,4.8,22,22,22
				C884.5,484.6,879.6,489.4,879.6,506.6z"/>
			<path d="M879.6,510.5c-2.2,0-3.9-1.8-3.9-3.9c0-15.1-3.1-18.1-18.1-18.1c-2.2,0-3.9-1.8-3.9-3.9s1.8-3.9,3.9-3.9
				c15.1,0,18.1-3.1,18.1-18.1c0-2.2,1.8-3.9,3.9-3.9s3.9,1.8,3.9,3.9c0,15.1,3.1,18.1,18.1,18.1c2.2,0,3.9,1.8,3.9,3.9
				s-1.8,3.9-3.9,3.9c-15.1,0-18.1,3.1-18.1,18.1C883.5,508.8,881.8,510.5,879.6,510.5z M875.7,484.6c1.6,1.1,2.9,2.4,4,4
				c1.1-1.6,2.4-2.9,4-4c-1.6-1.1-2.9-2.4-4-4C878.6,482.2,877.2,483.5,875.7,484.6z"/>
		</g>
		<g>
			<circle cx="1324.1" cy="1000.4" r="149.7"/>
			<path d="M1324.1,1153.9c-84.7,0-153.6-68.9-153.6-153.6s68.9-153.6,153.6-153.6s153.6,68.9,153.6,153.6
				S1408.8,1153.9,1324.1,1153.9z M1324.1,854.6c-80.4,0-145.8,65.4-145.8,145.8c0,80.4,65.4,145.8,145.8,145.8
				s145.8-65.4,145.8-145.8C1469.9,920,1404.5,854.6,1324.1,854.6z"/>
		</g>
		<g>
			<defs>
				<circle id="SVGID_1_" cx="1324.1" cy="1000.4" r="149.7"/>
			</defs>
			<clipPath id="SVGID_00000079485807120398932340000015587294837168334522_">
				<use xlink:href="#SVGID_1_"  style="overflow:visible;"/>
			</clipPath>
			<g style="clip-path:url(#SVGID_00000079485807120398932340000015587294837168334522_);">
				<circle class="st1" cx="1280.2" cy="930" r="167.3"/>
				<path d="M1280.2,1101.2c-94.4,0-171.2-76.8-171.2-171.2s76.8-171.2,171.2-171.2s171.2,76.8,171.2,171.2
					S1374.6,1101.2,1280.2,1101.2z M1280.2,766.6c-90.1,0-163.4,73.3-163.4,163.4s73.3,163.4,163.4,163.4s163.4-73.3,163.4-163.4
					S1370.3,766.6,1280.2,766.6z"/>
			</g>
		</g>
		<path d="M1324.1,1153.9c-84.7,0-153.6-68.9-153.6-153.6s68.9-153.6,153.6-153.6s153.6,68.9,153.6,153.6
			S1408.8,1153.9,1324.1,1153.9z M1324.1,854.6c-80.4,0-145.8,65.4-145.8,145.8c0,80.4,65.4,145.8,145.8,145.8
			s145.8-65.4,145.8-145.8C1469.9,920,1404.5,854.6,1324.1,854.6z"/>
		<path d="M1337.1,916.6c-0.3,0-0.6,0-1-0.1c-2.1-0.5-3.4-2.7-2.8-4.7l48.5-191.4c0.5-2.1,2.7-3.4,4.7-2.8c2.1,0.5,3.4,2.7,2.8,4.7
			l-48.5,191.4C1340.4,915.5,1338.9,916.6,1337.1,916.6z"/>
		<g>
			<g>
				<polygon class="st1" points="1550.4,853.1 1357.5,804.3 1374.3,737.8 1567.3,786.7 1531.6,813 				"/>
				<path d="M1550.4,857.5c-0.4,0-0.7,0-1.1-0.1l-193-48.9c-1.1-0.3-2.1-1-2.7-2c-0.6-1-0.8-2.2-0.5-3.3l16.8-66.4
					c0.6-2.3,2.9-3.7,5.3-3.1l193,48.9c1.6,0.4,2.9,1.7,3.2,3.4c0.3,1.6-0.3,3.3-1.7,4.3l-32.8,24.2l17.4,36.9
					c0.7,1.5,0.5,3.3-0.6,4.6C1552.9,856.9,1551.7,857.5,1550.4,857.5z M1362.7,801.1l179.9,45.5l-15-31.8c-0.9-1.9-0.3-4.1,1.4-5.3
					l28.3-20.9l-179.9-45.5L1362.7,801.1z"/>
			</g>
		</g>
		<g>
			<g>
				<g>
					<path class="st1" d="M366.1,816.5L255.3,696.7c-8.7-9.4-8.2-24.2,1.3-32.9l95.4-88.3c9.4-8.7,24.2-8.2,32.9,1.3l110.8,119.8
						c8.7,9.4,8.2,24.2-1.3,32.9L399,817.7C389.6,826.5,374.8,825.9,366.1,816.5z"/>
					<path d="M383.2,827.8c-7.3,0-14.6-2.9-20-8.7L252.4,699.3c-4.9-5.3-7.5-12.3-7.2-19.5c0.3-7.3,3.4-14,8.7-18.9l95.4-88.3
						c11-10.2,28.3-9.5,38.5,1.5l110.8,119.8c4.9,5.3,7.5,12.3,7.2,19.5c-0.3,7.3-3.4,14-8.7,18.9l-95.4,88.3
						C396.4,825.4,389.8,827.8,383.2,827.8z M367.8,573.2c-4.7,0-9.4,1.7-13.2,5.1l-95.4,88.3c-3.8,3.5-6,8.3-6.2,13.5
						c-0.2,5.2,1.6,10.1,5.1,13.9l110.8,119.8c3.5,3.8,8.3,6,13.5,6.2c5.2,0.2,10.1-1.6,13.9-5.1l95.4-88.3c3.8-3.5,6-8.3,6.2-13.5
						c0.2-5.2-1.6-10.1-5.1-13.9L382.1,579.4C378.3,575.3,373.1,573.2,367.8,573.2z"/>
				</g>
				<g>
					<g>
						<g>
							<path class="st1" d="M512.7,690.7l10.3,6.1c6.2,3.7,13.1,3.5,17.4-0.5l24.4-22.6c4.3-3.9,5-10.8,1.8-17.3l-5.3-10.8"/>
							<path d="M532,703.3c-3.6,0-7.4-1-11-3.1l-10.3-6.1c-1.9-1.1-2.5-3.5-1.4-5.4c1.1-1.9,3.5-2.5,5.4-1.4l10.3,6.1
								c4.7,2.7,9.8,2.8,12.7,0l24.4-22.6c3-2.7,3.3-7.8,1-12.7l-5.3-10.8c-0.9-1.9-0.1-4.3,1.8-5.2c1.9-0.9,4.3-0.1,5.2,1.8
								l5.3,10.8c3.9,8,2.8,16.8-2.7,21.9L543,699.2C540.1,701.9,536.2,703.3,532,703.3z"/>
						</g>
						<g>
							<path class="st1" d="M392.1,560.3l-5.3-10.8c-3.2-6.5-2.4-13.3,1.8-17.3l24.4-22.6c4.3-3.9,11.2-4.1,17.4-0.5l10.3,6.1"/>
							<path d="M392.1,564.2c-1.4,0-2.8-0.8-3.5-2.2l-5.3-10.8c-3.9-8-2.8-16.8,2.7-21.9l24.4-22.6c5.5-5.1,14.3-5.5,22-1l10.3,6.1
								c1.9,1.1,2.5,3.5,1.4,5.4c-1.1,1.9-3.5,2.5-5.4,1.4l-10.3-6.1c-4.7-2.7-9.8-2.8-12.7,0l-24.4,22.6c-2.9,2.7-3.3,7.8-1,12.7
								l5.3,10.8c0.9,1.9,0.1,4.3-1.8,5.2C393.2,564.1,392.6,564.2,392.1,564.2z"/>
						</g>
					</g>
					<g>
						<circle class="st1" cx="481.2" cy="598.9" r="94.1"/>
						<path d="M481.3,696.9c-1.3,0-2.6,0-3.9-0.1c-26.2-1-50.4-12.2-68.1-31.4c-17.8-19.2-27-44.2-26-70.4
							c1-26.2,12.2-50.4,31.4-68.1c19.2-17.8,44.2-27,70.4-26c26.2,1,50.4,12.2,68.1,31.4c17.8,19.2,27,44.2,26,70.4
							c-1,26.2-12.2,50.4-31.4,68.1h0C529.5,687.7,506,696.9,481.3,696.9z M481.1,508.7c-22.8,0-44.4,8.4-61.2,24
							C402.2,549,392,571.3,391,595.4c-0.9,24.1,7.6,47.1,23.9,64.8c16.4,17.7,38.6,27.9,62.7,28.9c24.1,0.9,47.1-7.6,64.8-23.9
							c17.7-16.4,27.9-38.6,28.9-62.7s-7.6-47.1-23.9-64.8c-16.4-17.7-38.6-27.9-62.7-28.9C483.5,508.7,482.3,508.7,481.1,508.7z
							 M545.1,668L545.1,668L545.1,668z"/>
					</g>
					<g>
						<ellipse transform="matrix(0.7341 -0.679 0.679 0.7341 -286.7396 482.0176)" cx="472.2" cy="607.2" rx="51.6" ry="91.7"/>
						<path d="M510,687c-6.7,0-14.1-1.2-21.8-3.7c-19.5-6.3-39.7-19.9-56.8-38.4c-17.1-18.5-29.1-39.6-33.9-59.6
							c-5-20.8-1.5-37.9,9.7-48.3c11.2-10.4,28.5-12.4,48.9-5.9c19.5,6.3,39.7,19.9,56.8,38.4c17.1,18.5,29.1,39.6,33.9,59.6
							c5,20.8,1.5,37.9-9.7,48.3C530.2,683.8,520.9,687,510,687z M434.3,535.2c-8.9,0-16.3,2.5-21.8,7.6c-9,8.4-11.7,22.8-7.4,40.7
							c4.5,18.7,15.8,38.6,32,56.1c16.2,17.5,35.2,30.4,53.4,36.3c17.5,5.6,32.1,4.2,41.2-4.2c9-8.4,11.7-22.8,7.4-40.7
							c-4.5-18.7-15.8-38.6-32-56.1c-16.2-17.5-35.2-30.4-53.4-36.3C446.7,536.3,440.2,535.2,434.3,535.2z"/>
					</g>
					<path d="M514.9,678.3c-5.9,0-12-0.8-18.4-2.3c-20.9-5.1-41.9-18.1-59-36.7c-17.1-18.5-28.5-40.4-32-61.7
						c-3.6-21.8,1.6-40.4,14.5-52.3c12.9-11.9,31.8-15.6,53.3-10.3c20.9,5.1,41.9,18.1,59,36.7c17.1,18.5,28.5,40.4,32,61.7
						c3.6,21.8-1.6,40.4-14.5,52.3h0C540.7,674,528.7,678.3,514.9,678.3z M455,520.4c-11.6,0-21.9,3.4-29.7,10.6
						c-23,21.2-14.9,67.4,17.9,103c16.1,17.4,35.7,29.6,55.1,34.4c18.9,4.6,35.2,1.6,46.1-8.5c0,0,0,0,0,0
						c10.9-10.1,15.2-26.2,12.1-45.3c-3.2-19.7-13.9-40.2-30-57.6C504.8,533.4,477.6,520.4,455,520.4z"/>
				</g>
				<g>
					<polyline class="st1" points="387.1,599.8 292.8,551.9 270.1,586.3 324.3,636.3 					"/>
					<path d="M324.3,640.2c-0.9,0-1.9-0.3-2.7-1l-54.2-50c-1.4-1.3-1.7-3.4-0.6-5l22.7-34.4c1.1-1.7,3.3-2.2,5-1.3l94.3,47.9
						c1.9,1,2.7,3.3,1.7,5.3c-1,1.9-3.3,2.7-5.3,1.7l-91.2-46.3l-18.9,28.7l51.7,47.8c1.6,1.5,1.7,3.9,0.2,5.5
						C326.4,639.8,325.3,640.2,324.3,640.2z"/>
				</g>
				<g>
					<polyline class="st1" points="475.5,695.4 515.9,793.1 479.8,813.1 434.2,755.2 					"/>
					<path d="M479.8,817c-1.2,0-2.3-0.5-3.1-1.5l-45.6-57.9c-1.3-1.7-1-4.2,0.6-5.5c1.7-1.3,4.2-1,5.5,0.6l43.6,55.3l30.1-16.6
						l-39.1-94.5c-0.8-2,0.1-4.3,2.1-5.1c2-0.8,4.3,0.1,5.1,2.1l40.4,97.7c0.8,1.8,0,4-1.7,4.9l-36.1,19.9
						C481.1,816.8,480.5,817,479.8,817z"/>
				</g>
				<g>
					<g>
						<g>
							<path class="st1" d="M345.4,623L164.7,736.8l-8.5-10.6c-6.4-8-17.6-10.2-26.5-5.1h0c-10.5,5.9-13.8,19.5-7.2,29.6l30.3,46
								c5.8,8.8,17,12.2,26.7,8.2l96.3-39.8"/>
							<path d="M171.2,810.5c-8.5,0-16.7-4.2-21.6-11.6l-30.3-46c-3.8-5.7-5-12.8-3.4-19.5s6-12.4,11.9-15.7
								c10.6-6,23.9-3.4,31.5,6.1l6.3,7.9l177.7-112c1.8-1.2,4.2-0.6,5.4,1.2s0.6,4.2-1.2,5.4L166.8,740.2c-1.7,1.1-3.9,0.7-5.1-0.9
								l-8.5-10.6c-5.2-6.5-14.3-8.3-21.5-4.2c-4.1,2.3-7,6.2-8.2,10.8s-0.3,9.3,2.3,13.3l30.3,46c4.7,7.2,14,10,22,6.7l96.3-39.8
								c2-0.8,4.3,0.1,5.1,2.1c0.8,2-0.1,4.3-2.1,5.1L181,808.5C177.8,809.8,174.5,810.5,171.2,810.5z"/>
						</g>
						<g>
							<path class="st1" d="M446.5,732.4L319,903.6l10,9.3c7.5,7,8.8,18.3,3.1,26.8h0c-6.7,10-20.6,12.3-30.1,4.9l-43.5-33.8
								c-8.3-6.5-10.9-17.9-6.1-27.3l47.2-92.9"/>
							<path d="M314.7,952.9c-5.5,0-10.9-1.8-15.2-5.2L256,913.9c-9.8-7.6-12.8-21.1-7.2-32.1l47.2-92.9c1-1.9,3.3-2.7,5.3-1.7
								c1.9,1,2.7,3.3,1.7,5.3l-47.2,92.9c-3.9,7.7-1.8,17.1,5,22.4l43.5,33.8c3.8,2.9,8.4,4.1,13.1,3.3c4.7-0.8,8.7-3.3,11.4-7.3
								c4.6-6.9,3.6-16.1-2.5-21.8l-10-9.3c-1.5-1.4-1.7-3.6-0.5-5.2L443.4,730c1.3-1.7,3.7-2.1,5.5-0.8c1.7,1.3,2.1,3.7,0.8,5.5
								L324.2,903.1l7.4,6.9c8.9,8.3,10.4,21.7,3.6,31.8c-3.8,5.7-9.9,9.6-16.6,10.7C317.3,952.8,316,952.9,314.7,952.9z"/>
						</g>
					</g>
					<g>
						<path class="st1" d="M273.8,737.4c-2.8,10.4,2.8,26.1,15.1,39.4c12.2,13.2,27.5,20.1,38.1,18.1"/>
						<path d="M323,799.1c-11.6,0-25.7-7.3-37.1-19.7c-13-14-19.2-30.9-16-43c0.6-2.1,2.7-3.3,4.8-2.8c2.1,0.6,3.3,2.7,2.8,4.8
							c-2.5,9.3,3.3,24,14.2,35.7c10.8,11.7,25,18.7,34.5,16.9c2.1-0.4,4.2,1,4.6,3.1c0.4,2.1-1,4.2-3.1,4.6
							C326.1,799,324.6,799.1,323,799.1z"/>
					</g>
				</g>
				<polygon class="st1" points="321.8,718.9 287.5,724.7 281,748 286.9,763.1 299.9,777.2 318.8,788.9 343.6,779.4 350.6,743.3 
									"/>
				<g>
					<path class="st1" d="M355.4,755.6L315.1,712c-3.2-3.4-3-8.8,0.5-12l34.8-32.2c3.4-3.2,8.8-3,12,0.5l40.4,43.6
						c3.2,3.4,3,8.8-0.5,12l-34.8,32.2C364,759.3,358.6,759.1,355.4,755.6z"/>
					<path d="M361.7,762.3c-0.2,0-0.3,0-0.5,0c-3.3-0.1-6.4-1.5-8.6-4l-40.4-43.6c-2.2-2.4-3.4-5.6-3.3-8.9c0.1-3.3,1.5-6.4,4-8.6
						l34.8-32.2c2.4-2.2,5.6-3.4,8.9-3.3c3.3,0.1,6.4,1.5,8.6,4l40.4,43.6c4.6,5,4.3,12.9-0.7,17.5L370.1,759
						C367.8,761.1,364.8,762.3,361.7,762.3z M356.1,669.5c-1.2,0-2.3,0.4-3.1,1.2l-34.8,32.2c-0.9,0.8-1.4,2-1.5,3.2
						c0,1.2,0.4,2.4,1.2,3.3l40.4,43.6l0,0c0.8,0.9,2,1.4,3.2,1.5c1.2,0,2.4-0.4,3.3-1.2l34.8-32.2c1.9-1.7,2-4.6,0.3-6.5L359.4,671
						c-0.8-0.9-2-1.4-3.2-1.5C356.2,669.5,356.1,669.5,356.1,669.5z"/>
				</g>
				<g>
					<path class="st1" d="M355.8,708.7c-3.7,3.5-9.6,3.2-13-0.5c-3.5-3.7-3.2-9.6,0.5-13c3.7-3.5,9.6-3.2,13,0.5
						C359.8,699.4,359.6,705.2,355.8,708.7z"/>
					<path d="M349.6,715c-3.5,0-7.1-1.4-9.6-4.2c-4.9-5.3-4.6-13.6,0.7-18.5c2.6-2.4,5.9-3.6,9.4-3.5c3.5,0.1,6.7,1.6,9.1,4.2
						c2.4,2.6,3.6,5.9,3.5,9.4s-1.6,6.7-4.2,9.1c0,0,0,0,0,0C356,713.9,352.8,715,349.6,715z M355.8,708.7L355.8,708.7L355.8,708.7z
						 M349.6,696.6c-1.3,0-2.6,0.5-3.6,1.4c-2.1,2-2.3,5.3-0.3,7.5c2,2.1,5.3,2.3,7.5,0.3c2.1-2,2.3-5.3,0.3-7.5
						C352.4,697.2,351,696.6,349.6,696.6z"/>
				</g>
				<path d="M361.6,741.9c-1.1,0-2.1-0.4-2.9-1.3c-1.5-1.6-1.4-4.1,0.2-5.5l23-21.3c1.6-1.5,4.1-1.4,5.5,0.2
					c1.5,1.6,1.4,4.1-0.2,5.5l-23,21.3C363.5,741.5,362.5,741.9,361.6,741.9z"/>
				<path d="M352,731.6c-1.1,0-2.1-0.4-2.9-1.3c-1.5-1.6-1.4-4.1,0.2-5.5l23-21.3c1.6-1.5,4.1-1.4,5.5,0.2s1.4,4.1-0.2,5.5l-23,21.3
					C353.9,731.2,352.9,731.6,352,731.6z"/>
				<g>
					<path class="st1" d="M257.5,585l-5.9-3.8c-13-8.4-16.7-25.8-8.3-38.8l0,0c8.4-13,25.8-16.7,38.8-8.3l5.9,3.8
						c9.8,6.3,12.5,19.4,6.2,29.1l-7.6,11.7C280.3,588.5,267.2,591.3,257.5,585z"/>
					<path d="M268.9,592.3c-4.8,0-9.4-1.4-13.5-4l-5.9-3.8c-14.8-9.6-19-29.4-9.4-44.2c9.6-14.8,29.4-19,44.2-9.4l5.9,3.8
						c5.6,3.6,9.4,9.2,10.8,15.7c1.4,6.5,0.2,13.2-3.5,18.8l-7.6,11.7c-3.6,5.6-9.2,9.4-15.7,10.8
						C272.4,592.1,270.6,592.3,268.9,592.3z M266.9,533.5c-7.9,0-15.7,3.9-20.3,11c-7.2,11.2-4,26.1,7.1,33.4l5.9,3.8c0,0,0,0,0,0
						c3.8,2.5,8.4,3.3,12.9,2.4c4.5-1,8.3-3.6,10.8-7.4l7.6-11.7c2.5-3.8,3.3-8.4,2.4-12.9c-1-4.5-3.6-8.3-7.4-10.8l-5.9-3.8
						C275.9,534.8,271.4,533.5,266.9,533.5z"/>
				</g>
				<g>
					<path class="st1" d="M479.8,825.4l3.3,6.1c7.4,13.6,24.4,18.7,38,11.3h0c13.6-7.4,18.7-24.4,11.3-38l-3.3-6.1
						c-5.5-10.2-18.3-14-28.5-8.5l-12.3,6.6C478.1,802.4,474.3,815.2,479.8,825.4z"/>
					<path d="M507.8,850.1c-11.3,0-22.3-6.1-28.1-16.7l-3.3-6.1c-3.2-5.9-3.9-12.6-2-19c1.9-6.4,6.2-11.7,12-14.8l12.3-6.7
						c12.1-6.6,27.3-2.1,33.8,10l3.3,6.1c8.4,15.5,2.6,34.9-12.8,43.3C518.2,848.8,513,850.1,507.8,850.1z M510.6,791.5
						c-2.8,0-5.6,0.7-8.1,2.1l-12.3,6.7c-4,2.2-7,5.8-8.3,10.2s-0.8,9,1.4,13.1l0,0l3.3,6.1c6.3,11.7,21,16,32.7,9.7
						c5.7-3.1,9.8-8.2,11.6-14.3c1.8-6.2,1.2-12.7-1.9-18.4l-3.3-6.1C522.6,794.8,516.7,791.5,510.6,791.5z"/>
				</g>
			</g>
			<g>
				<g>
					
						<rect x="762.2" y="819.7" transform="matrix(0.9734 -0.2291 0.2291 0.9734 -169.324 210.8589)" class="st1" width="122.5" height="30"/>
					<path d="M767.3,867.2c-0.7,0-1.4-0.2-2.1-0.6c-0.9-0.5-1.5-1.4-1.7-2.4l-6.9-29.2c-0.5-2.1,0.8-4.2,2.9-4.7l119.2-28.1
						c1-0.2,2.1-0.1,3,0.5s1.5,1.4,1.7,2.4l6.9,29.2c0.5,2.1-0.8,4.2-2.9,4.7l-119.2,28.1C767.9,867.2,767.6,867.2,767.3,867.2z
						 M765.1,837l5.1,21.6l111.6-26.3l-5.1-21.6L765.1,837z"/>
				</g>
				<g>
					<polygon class="st1" points="879.6,806 760.4,834.1 771.6,728.4 822.4,716.4 					"/>
					<path d="M760.4,838c-0.9,0-1.9-0.3-2.6-1c-0.9-0.8-1.4-2.1-1.3-3.3l11.3-105.7c0.2-1.7,1.4-3,3-3.4l50.8-11.9
						c1.6-0.4,3.3,0.3,4.2,1.7l57.2,89.6c0.7,1.1,0.8,2.4,0.3,3.6c-0.5,1.2-1.5,2-2.7,2.3l-119.2,28.1C761,838,760.7,838,760.4,838z
						 M775.2,731.5L764.9,829l108.5-25.5l-52.8-82.6L775.2,731.5z"/>
				</g>
				<g>
					<polygon class="st1" points="862.2,885 811.2,897 816,851.8 837.7,846.7 					"/>
					<path d="M811.2,900.9c-0.9,0-1.9-0.3-2.6-1c-0.9-0.8-1.4-2.1-1.3-3.3l4.8-45.2c0.2-1.7,1.4-3,3-3.4l21.7-5.1
						c1.6-0.4,3.3,0.3,4.2,1.7l24.4,38.3c0.7,1.1,0.8,2.4,0.3,3.6c-0.5,1.2-1.5,2-2.7,2.3l-50.9,12
						C811.8,900.8,811.5,900.9,811.2,900.9z M819.6,855l-3.9,36.9l40.2-9.5l-20-31.3L819.6,855z"/>
				</g>
				<g>
					<path d="M809.3,800.7c-11.8,0-22.5-8.1-25.3-20.1c-3.3-14,5.4-28,19.4-31.3c14-3.3,28,5.4,31.3,19.4l0,0
						c1.6,6.8,0.5,13.8-3.2,19.7s-9.4,10-16.2,11.6C813.3,800.5,811.3,800.7,809.3,800.7z M809.3,756.4c-1.4,0-2.8,0.2-4.2,0.5
						c-9.8,2.3-15.9,12.1-13.6,21.9s12.1,15.9,21.9,13.6c4.7-1.1,8.8-4,11.3-8.1c2.6-4.1,3.4-9,2.2-13.8l0,0
						C825.1,762.1,817.6,756.4,809.3,756.4z"/>
					<g>
						<defs>
							<circle id="SVGID_00000048476461591083578010000006936194161975511177_" cx="809.3" cy="774.6" r="22.1"/>
						</defs>
						<clipPath id="SVGID_00000092428130259653703820000011334323863981485698_">
							<use xlink:href="#SVGID_00000048476461591083578010000006936194161975511177_"  style="overflow:visible;"/>
						</clipPath>
						
							<circle style="clip-path:url(#SVGID_00000092428130259653703820000011334323863981485698_);" cx="819.2" cy="778.7" r="22.1"/>
					</g>
				</g>
			</g>
			<g>
				<path class="st1" d="M252.3,1090.4c-43.8-21.6-77.2-54.5-92.8-92.1c-17.8-42.9-14.5-97.1,9.1-148.6
					c32.5-70.8,97.7-126.8,179-153.5c3.2-1.1,6.7,0.7,7.8,3.9c1.1,3.2-0.7,6.7-3.9,7.8c-78,25.7-140.6,79.3-171.6,147
					c-22.2,48.4-25.5,99-9,138.8c16.1,38.8,53,72.5,101.4,92.3c50.3,20.7,104.5,22.8,145.1,5.7c73.3-30.8,112.9-91.3,151.3-149.7
					c23.4-35.6,45.5-69.3,74.4-96c61.5-56.7,130.1-72.8,165.5-77.3c3.4-0.4,6.5,1.9,6.9,5.3c0.4,3.4-1.9,6.5-5.3,6.9
					c-34,4.4-99.8,19.8-158.7,74.2c-27.8,25.6-49.5,58.7-72.5,93.7c-39.4,60-80.1,122.1-156.8,154.3
					c-43.5,18.3-101.3,16.2-154.5-5.7C262.4,1095.1,257.3,1092.8,252.3,1090.4z"/>
				<path d="M349.6,695.8c2.6,0,5,1.6,5.8,4.2c1.1,3.2-0.7,6.7-3.9,7.8c-78,25.7-140.6,79.3-171.6,147c-22.2,48.4-25.5,99-9,138.8
					c16.1,38.8,53,72.5,101.4,92.3c27.8,11.4,56.7,17.2,83.9,17.2c22.1,0,43-3.8,61.1-11.4c73.3-30.8,112.9-91.3,151.3-149.7
					c23.4-35.6,45.5-69.3,74.4-96c61.5-56.7,130.1-72.8,165.5-77.3c0.3,0,0.5-0.1,0.8-0.1c3,0,5.7,2.3,6.1,5.4
					c0.4,3.4-1.9,6.5-5.3,6.9c-34,4.4-99.8,19.8-158.7,74.2c-27.8,25.6-49.5,58.7-72.5,93.7c-39.4,60-80.1,122.1-156.8,154.3
					c-19.6,8.3-42.2,12.4-65.9,12.4c-28.8,0-59.4-6.1-88.6-18.1c-5.2-2.1-10.3-4.5-15.3-6.9c-43.8-21.6-77.2-54.5-92.8-92.1
					c-17.8-42.9-14.5-97.1,9.1-148.6c32.5-70.8,97.7-126.8,179-153.5C348.3,695.9,348.9,695.8,349.6,695.8 M349.6,688
					c-1.5,0-3,0.2-4.4,0.7c-83.3,27.4-150.3,84.9-183.6,157.7c-24.5,53.5-27.9,109.9-9.3,154.9c8.1,19.6,20.8,38,37.5,54.6
					c16.6,16.4,36.4,30.4,59,41.5c5.1,2.5,10.4,4.9,15.8,7.1c29.7,12.2,61.4,18.6,91.6,18.6c25.3,0,48.5-4.4,68.9-13
					c78.9-33.2,120.3-96.3,160.3-157.3c22.7-34.6,44.1-67.2,71.2-92.2c57.4-52.9,121.4-67.9,154.4-72.2c3.7-0.5,7-2.4,9.3-5.3
					c2.3-3,3.3-6.6,2.8-10.3c-0.9-7-6.8-12.2-13.9-12.2c-0.6,0-1.2,0-1.8,0.1c-36.3,4.7-106.7,21.2-169.8,79.3
					c-29.6,27.3-52,61.4-75.6,97.4c-37.7,57.5-76.7,117-147.8,146.8c-17.1,7.2-36.6,10.8-58.1,10.8c-26.6,0-54.6-5.7-81-16.6
					c-46.4-19.1-81.8-51.2-97.1-88.1c-15.7-37.8-12.4-86.1,8.9-132.5c30.1-65.8,91-117.8,167-142.8c7.3-2.4,11.3-10.3,8.9-17.6
					C361,691.8,355.6,688,349.6,688L349.6,688z"/>
			</g>
		</g>
		<g>
			<g>
				<circle class="st1" cx="1575.8" cy="245.2" r="30.7"/>
				<path d="M1575.8,279.9c-3.9,0-7.9-0.7-11.8-2.1c-18-6.5-27.2-26.5-20.7-44.4c3.2-8.7,9.5-15.6,17.9-19.6s17.8-4.3,26.5-1.2
					c18,6.5,27.2,26.5,20.7,44.4C1603.3,271.1,1589.9,279.9,1575.8,279.9z M1575.8,218.4c-3.9,0-7.7,0.8-11.3,2.5
					c-6.5,3-11.4,8.4-13.9,15.1l0,0c-5.1,13.9,2.1,29.3,16,34.4c13.9,5.1,29.3-2.1,34.4-16c5.1-13.9-2.1-29.3-16-34.4
					C1582,218.9,1578.9,218.4,1575.8,218.4z M1546.9,234.7L1546.9,234.7L1546.9,234.7z"/>
			</g>
			<g>
				<path d="M1641.8,218.4h-64.6c-2.2,0-3.9-1.8-3.9-3.9s1.8-3.9,3.9-3.9h64.6c2.2,0,3.9,1.8,3.9,3.9S1643.9,218.4,1641.8,218.4z"/>
			</g>
			<g>
				<path d="M1606.6,315.1c-0.9,0-1.8-0.3-2.5-0.9l-49.5-41.5c-1.7-1.4-1.9-3.9-0.5-5.5c1.4-1.7,3.9-1.9,5.5-0.5l49.5,41.5
					c1.7,1.4,1.9,3.9,0.5,5.5C1608.8,314.6,1607.7,315.1,1606.6,315.1z"/>
			</g>
			<g>
				<g>
					<path d="M1643.1,274.8c-0.5,0-1-0.1-1.5-0.3l-59.9-24.2c-2-0.8-3-3.1-2.2-5.1c0.8-2,3.1-3,5.1-2.2l59.9,24.2
						c2,0.8,3,3.1,2.2,5.1C1646.1,273.9,1644.6,274.8,1643.1,274.8z"/>
				</g>
			</g>
		</g>
		<g>
			<g>
				<circle class="st1" cx="1889.1" cy="1185.3" r="30.7"/>
				<path d="M1889.1,1220c-3.9,0-7.9-0.7-11.7-2.1c-8.7-3.1-15.7-9.5-19.6-17.8c-4-8.4-4.4-17.8-1.3-26.5
					c6.4-18,26.3-27.4,44.3-20.9l0,0c18,6.4,27.4,26.3,20.9,44.3c-3.1,8.7-9.5,15.7-17.8,19.6
					C1899.2,1218.9,1894.1,1220,1889.1,1220z M1889.1,1158.5c-11,0-21.4,6.8-25.3,17.8c-2.4,6.7-2.1,14,1,20.5
					c3.1,6.5,8.5,11.4,15.2,13.8c6.7,2.4,14,2.1,20.5-1c6.5-3.1,11.4-8.5,13.8-15.2c2.4-6.7,2.1-14-1-20.5
					c-3.1-6.5-8.5-11.4-15.2-13.8C1895.1,1159,1892.1,1158.5,1889.1,1158.5z"/>
			</g>
			<g>
				<path d="M1920.1,1255c-2.2,0-3.9-1.7-3.9-3.9l-0.3-64.6c0-2.2,1.7-3.9,3.9-3.9c0,0,0,0,0,0c2.2,0,3.9,1.7,3.9,3.9l0.3,64.6
					C1924,1253.3,1922.3,1255,1920.1,1255C1920.1,1255,1920.1,1255,1920.1,1255z"/>
			</g>
			<g>
				<path d="M1823.3,1220.3c-0.9,0-1.8-0.3-2.5-0.9c-1.7-1.4-1.9-3.8-0.5-5.5l41.3-49.7c1.4-1.7,3.8-1.9,5.5-0.5
					c1.7,1.4,1.9,3.8,0.5,5.5l-41.3,49.7C1825.5,1219.8,1824.4,1220.3,1823.3,1220.3z"/>
			</g>
			<g>
				<g>
					<path d="M1863.7,1256.6c-0.5,0-1-0.1-1.4-0.3c-2-0.8-3-3.1-2.2-5.1l23.9-60c0.8-2,3.1-3,5.1-2.2c2,0.8,3,3.1,2.2,5.1l-23.9,60
						C1866.7,1255.7,1865.3,1256.6,1863.7,1256.6z"/>
				</g>
			</g>
		</g>
		<g>
			<g>
				<circle class="st1" cx="973.1" cy="1203.9" r="30.7"/>
				<path d="M973.2,1238.5c-1.2,0-2.3-0.1-3.5-0.2c-9.2-0.9-17.5-5.4-23.4-12.5c-5.9-7.2-8.6-16.2-7.7-25.4
					c0.9-9.2,5.4-17.5,12.5-23.4l0,0c7.2-5.9,16.2-8.6,25.4-7.7c9.2,0.9,17.5,5.4,23.4,12.5c5.9,7.2,8.6,16.2,7.7,25.4
					c-0.9,9.2-5.4,17.5-12.5,23.4C988.8,1235.8,981.2,1238.5,973.2,1238.5z M973.1,1177c-6.2,0-12.1,2.1-17,6.1l0,0
					c-5.5,4.5-9,11-9.7,18.1c-0.7,7.1,1.4,14.1,6,19.7c9.4,11.4,26.3,13.1,37.8,3.7c5.5-4.5,9-11,9.7-18.1c0.7-7.1-1.4-14.1-6-19.7
					s-11-9-18.1-9.7C974.9,1177.1,974,1177,973.1,1177z M953.6,1180.1L953.6,1180.1L953.6,1180.1z"/>
			</g>
			<g>
				<path d="M1045.5,1215c-0.7,0-1.4-0.2-2-0.5l-55.6-32.9c-1.9-1.1-2.5-3.5-1.4-5.4c1.1-1.9,3.5-2.5,5.4-1.4l55.6,32.9
					c1.9,1.1,2.5,3.5,1.4,5.4C1048.1,1214.3,1046.8,1215,1045.5,1215z"/>
			</g>
			<g>
				<path d="M966,1280.2c-1.6,0-3.1-1-3.7-2.6l-21.4-60.9c-0.7-2,0.4-4.3,2.4-5c2-0.7,4.3,0.4,5,2.4l21.4,60.9c0.7,2-0.4,4.3-2.4,5
					C966.8,1280.1,966.4,1280.2,966,1280.2z"/>
			</g>
			<g>
				<g>
					<path d="M1017.9,1264.2c-1.2,0-2.3-0.5-3.1-1.5l-39.2-51.4c-1.3-1.7-1-4.2,0.7-5.5c1.7-1.3,4.2-1,5.5,0.7l39.2,51.4
						c1.3,1.7,1,4.2-0.7,5.5C1019.5,1263.9,1018.7,1264.2,1017.9,1264.2z"/>
				</g>
			</g>
		</g>
		<g>
			<path d="M1241.5,1017c-16.8,0-30.4-13.6-30.4-30.4s13.6-30.4,30.4-30.4s30.4,13.6,30.4,30.4S1258.3,1017,1241.5,1017z
				 M1241.5,964c-12.5,0-22.6,10.1-22.6,22.6s10.1,22.6,22.6,22.6s22.6-10.1,22.6-22.6S1254,964,1241.5,964z"/>
			<g>
				<defs>
					<circle id="SVGID_00000039096454486311065480000004629073496051405203_" cx="1241.5" cy="986.6" r="26.5"/>
				</defs>
				<clipPath id="SVGID_00000142167938407976226550000014469115753508475008_">
					<use xlink:href="#SVGID_00000039096454486311065480000004629073496051405203_"  style="overflow:visible;"/>
				</clipPath>
				<circle style="clip-path:url(#SVGID_00000142167938407976226550000014469115753508475008_);" cx="1258.2" cy="996.2" r="26.5"/>
			</g>
		</g>
		<g>
			<path d="M1341.2,1055.8c-13.3,0-24-10.8-24-24s10.8-24,24-24s24,10.8,24,24S1354.5,1055.8,1341.2,1055.8z M1341.2,1015.5
				c-8.9,0-16.2,7.3-16.2,16.2s7.3,16.2,16.2,16.2s16.2-7.3,16.2-16.2S1350.1,1015.5,1341.2,1015.5z"/>
			<g>
				<defs>
					<circle id="SVGID_00000067925608703579118960000017874973812071361670_" cx="1341.2" cy="1031.7" r="20.1"/>
				</defs>
				<clipPath id="SVGID_00000160883833017032457490000018000895034256023445_">
					<use xlink:href="#SVGID_00000067925608703579118960000017874973812071361670_"  style="overflow:visible;"/>
				</clipPath>
				<circle style="clip-path:url(#SVGID_00000160883833017032457490000018000895034256023445_);" cx="1353.9" cy="1039" r="20.1"/>
			</g>
		</g>
		<g>
			<path d="M1332.2,958.7c-20.3,0-36.9-16.5-36.9-36.9c0-20.3,16.5-36.9,36.9-36.9c20.3,0,36.9,16.5,36.9,36.9
				C1369.1,942.2,1352.5,958.7,1332.2,958.7z M1332.2,892.8c-16,0-29.1,13-29.1,29.1c0,16,13,29.1,29.1,29.1c16,0,29.1-13,29.1-29.1
				C1361.2,905.8,1348.2,892.8,1332.2,892.8z"/>
			<g>
				<defs>
					<circle id="SVGID_00000127725208329214655570000001877993335160260021_" cx="1332.2" cy="921.9" r="33"/>
				</defs>
				<clipPath id="SVGID_00000129904117227417110310000000447098321902173850_">
					<use xlink:href="#SVGID_00000127725208329214655570000001877993335160260021_"  style="overflow:visible;"/>
				</clipPath>
				<circle style="clip-path:url(#SVGID_00000129904117227417110310000000447098321902173850_);" cx="1352.9" cy="933.7" r="33"/>
			</g>
		</g>
	</g>
	<g>
		<path d="M1425.7,802.9L1425.7,802.9c-8.4-2.1-13.4-10.6-11.3-19l3.8-15.1l30.3,7.7l-3.8,15.1C1442.6,800,1434.1,805,1425.7,802.9z
			"/>
		<path d="M1445,807l30.3,7.7l3.6-14.4c2.1-8.4-2.9-16.8-11.3-19l-15.1-3.8L1445,807z"/>
		<path d="M1492.6,819.9L1492.6,819.9c-8.4-2.1-13.4-10.6-11.3-19v0c2.1-8.4,10.6-13.4,19-11.3h0c8.4,2.1,13.4,10.6,11.3,19h0
			C1509.5,816.9,1501,822,1492.6,819.9z"/>
		<path d="M1399.5,764.1c-1.9,7.7-9.7,12.3-17.4,10.4l-4.1,16.3c16.7,4.2,33.7-5.9,37.9-22.6v0L1399.5,764.1z"/>
		<circle class="st7" cx="1511.1" cy="802.3" r="9.6"/>
	</g>
</g>
</svg>
