<?xml version="1.0" standalone="no"?>
<!DOCTYPE svg PUBLIC "-//W3C//DTD SVG 20010904//EN"
 "http://www.w3.org/TR/2001/REC-SVG-20010904/DTD/svg10.dtd">
<svg version="1.0" xmlns="http://www.w3.org/2000/svg"
 width="700.000000pt" height="700.000000pt" viewBox="0 0 700.000000 700.000000"
 preserveAspectRatio="xMidYMid meet">
<metadata>
Created by potrace 1.14, written by Peter Selinger 2001-2017
</metadata>
<g transform="translate(0.000000,700.000000) scale(0.100000,-0.100000)"
fill="#000000" stroke="none">
<path d="M2857 5534 c-1 -1 -42 -4 -92 -7 -49 -4 -101 -8 -115 -11 -14 -3 -52
-10 -85 -15 -33 -6 -70 -13 -82 -15 -37 -8 -177 -47 -198 -55 -11 -5 -36 -14
-55 -21 -171 -59 -417 -199 -575 -328 -75 -61 -225 -207 -270 -263 -11 -13
-36 -45 -56 -69 -219 -271 -387 -696 -415 -1046 -24 -309 5 -562 97 -838 74
-222 218 -481 361 -648 152 -179 376 -368 548 -461 19 -11 54 -30 77 -43 191
-106 500 -196 748 -219 71 -7 313 -7 370 0 184 20 333 53 482 105 96 34 281
117 304 136 8 8 19 14 23 14 23 0 254 163 344 243 300 268 524 632 621 1013
11 39 13 41 68 54 332 73 615 273 795 560 47 77 64 109 115 228 24 54 62 221
70 302 20 218 -8 412 -88 609 -32 78 -109 223 -129 241 -3 3 -24 30 -47 60
-99 131 -266 265 -426 344 -265 130 -518 160 -832 101 -113 -22 -301 -104
-421 -184 l-71 -47 -54 29 c-138 75 -387 166 -496 182 -11 2 -29 6 -40 9 -10
3 -40 8 -68 12 -27 3 -53 8 -56 10 -14 8 -343 25 -352 18z"/>
</g>
</svg>
